<svg xmlns="http://www.w3.org/2000/svg" id="Ebene_1" version="1" viewBox="0 0 995.3 430.9" enable-background="new 0 0 995.3 430.9"><style>.st0{filter:url(#Adobe_OpacityMaskFilter);} .st1{fill:url(#SVGID_2_);} .st2{mask:url(#SVGID_1_);fill:#009DDF;} .st3{fill:#009DDF;} .st4{fill:#3D3D3F;} .st5{fill:#3D3D3D;}</style><defs><filter id="Adobe_OpacityMaskFilter" width="201.5" height="201.5" x="1.6" y="2" filterUnits="userSpaceOnUse"><feFlood result="back" flood-color="#fff" flood-opacity="1"/><feBlend in="SourceGraphic" in2="back"/></filter></defs><mask id="SVGID_1_" width="201.5" height="201.5" x="1.6" y="2" maskUnits="userSpaceOnUse"><g class="st0"><linearGradient id="SVGID_2_" x1="162.5579" x2="162.5579" y1="230.6484" y2="28.1714" gradientUnits="userSpaceOnUse" gradientTransform="translate(-9.83 -27.166)"><stop offset="0" stop-color="#FFF"/><stop offset="1" stop-color="#1A171B"/></linearGradient><path d="M102.4 1h100.7v202.5H102.4z" class="st1"/></g></mask><path d="M203.1 102.8c0 55.6-45.1 100.7-100.7 100.7S1.7 158.4 1.7 102.8C1.6 47.1 46.7 2 102.4 2 158 2 203.1 47.1 203.1 102.8zM102.4 15.2c-48.3 0-87.5 39.2-87.5 87.5s39.2 87.5 87.5 87.5 87.5-39.2 87.5-87.5-39.2-87.5-87.5-87.5z" class="st2"/><path d="M264.3 248.4c-3.4 3.4-8.9 5.5-15.1 5.5-6.7 0-11.7-1.7-16.4-7.3v6.6h-12.2v-86.9H233v31.2c4.5-5.4 9.6-7 16.2-7 6.2 0 11.6 2.1 15 5.5 6.2 6.2 7 16.7 7 26.1s-.7 20.1-6.9 26.3zM246 201.7c-11.2 0-12.9 9.5-12.9 20.5s1.7 20.6 12.9 20.6 12.8-9.6 12.8-20.6c0-11-1.6-20.5-12.8-20.5zm71.1 4.1c-2.8-2.8-5-4.1-9.3-4.1-6.7 0-12.3 5.4-12.3 13.9v37.6H283v-61.9h12.2v6.7c3.2-4.4 9.5-7.4 16.5-7.4 6 0 10.5 1.6 14.8 5.9l-9.4 9.3zm23.4 20c0 10.6 5.6 17.3 15.7 17.3 7 0 10.6-2 15-6.3l7.9 7.4c-6.3 6.3-12.3 9.6-23.2 9.6-15.5 0-27.8-8.2-27.8-31.7 0-20 10.4-31.6 26.2-31.6 16.6 0 26.2 12.2 26.2 29.8v5.5h-40zm26.1-17c-2-4.6-6.3-7.8-12.2-7.8-5.9 0-10.4 3.2-12.3 7.8-1.2 2.8-1.5 4.6-1.6 8.4h27.8c-.1-3.8-.5-5.6-1.7-8.4zM467 253.2v-37.7c0-9.6-5.5-13.8-12.4-13.8-6.7 0-12.8 4.3-12.8 13.2v38.3h-12.4v-37.7c0-9.6-5.5-13.8-12.4-13.8s-13 4.3-13 13.8v37.7h-12.4v-61.9h12.2v6.2c4.1-4.5 10.3-7 16.5-7 7.7 0 13.7 3.1 17.6 9 5-6.1 11.2-9 19.4-9 6.3 0 12 2.1 15.6 5.6 4.8 4.6 6.6 10.5 6.6 17.5v39.5H467zm35.4-27.4c0 10.6 5.6 17.3 15.7 17.3 7 0 10.6-2 15-6.3l7.9 7.4c-6.3 6.3-12.3 9.6-23.2 9.6-15.5 0-27.8-8.2-27.8-31.7 0-20 10.4-31.6 26.2-31.6 16.6 0 26.2 12.2 26.2 29.8v5.5h-40zm26.1-17c-2-4.6-6.3-7.8-12.2-7.8s-10.4 3.2-12.3 7.8c-1.2 2.8-1.5 4.6-1.6 8.4h27.8c-.1-3.8-.5-5.6-1.7-8.4zm62.7 44.4v-37.7c0-9.6-5.5-13.8-12.5-13.8s-12.8 4.3-12.8 13.8v37.7h-12.4v-61.9h12.2v6.2c4.3-4.6 10.3-7 16.5-7 6.3 0 11.6 2.1 15.3 5.6 4.8 4.6 6.2 10.5 6.2 17.5v39.5h-12.5zM266.6 397.1V389c-5.7 6.9-11.9 9-20.1 9-7.7 0-14.4-2.6-18.6-6.8-7.7-7.7-8.6-20.7-8.6-32.3 0-11.6.9-24.5 8.6-32.1 4.2-4.2 10.8-6.8 18.5-6.8 8.1 0 14.4 2 20 8.6v-38.5h15.3V397h-15.1zm-16.1-63.3c-13.8 0-15.9 11.7-15.9 25.2s2.1 25.4 15.9 25.4 15.8-11.9 15.8-25.4-2-25.2-15.8-25.2zm50.1-27.8v-16.2h16.2V306h-16.2zm.4 91.1V321h15.3v76.2H301zm60.7 31.7c-11.6 0-18.9-2.7-26.9-10.1l9.8-9.8c4.8 4.5 9 6.8 16.5 6.8 12.9 0 17.9-9.2 17.9-19.4v-9.8c-5.6 6.6-11.9 8.7-19.7 8.7-7.7 0-14-2.6-18.2-6.8-7.4-7.4-8.6-18-8.6-30.9s1.2-23.6 8.6-30.9c4.2-4.2 10.7-6.6 18.3-6.6 8.1 0 14.3 2.1 20 9v-8h14.9v75.7c0 18.6-12.3 32.1-32.6 32.1zm1.8-95c-13.8 0-15.6 11.9-15.6 23.9s1.8 23.9 15.6 23.9c13.8 0 15.5-11.9 15.5-23.9s-1.6-23.9-15.5-23.9z" class="st3"/><path d="M413.3 306v-16.2h16.2V306h-16.2zm.5 91.1V321h15.3v76.2h-15.3zm58.1 0c-14.3 0-20.9-10.2-20.9-21.2V334h-8.7v-11.7h8.7v-23.1h15.3v23.1H481V334h-14.7v41.2c0 5.6 2.7 8.9 8.4 8.9h6.3v13.1h-9.1z" class="st4"/><path d="M538.8 397.1v-6.9c-5.6 5.6-10.8 7.8-20.3 7.8s-15.8-2.3-20.4-6.9c-3.9-4.1-6-9.9-6-16.4 0-12.8 8.9-21.9 26.3-21.9h20.1v-5.4c0-9.6-4.8-14.3-16.7-14.3-8.4 0-12.5 2-16.7 7.4L495 331c7.2-8.4 14.7-11 27.3-11 20.9 0 31.4 8.9 31.4 26.1V397h-14.9zm-.3-33.6h-17.9c-9 0-13.7 4.1-13.7 11s4.4 10.8 14 10.8c5.9 0 10.2-.5 14.3-4.4 2.3-2.3 3.3-5.9 3.3-11.3v-6.1zm54.6 33.6c-14.6 0-20.9-9.8-20.9-21v-85.9h15.3v85c0 5.9 2.1 8.9 8.3 8.9h6.8v13.1h-9.5z" class="st3"/><path d="M708.3 397.1v-46.4c0-11.9-6.8-17-15.3-17-8.3 0-15.8 5.3-15.8 16.2v47.2h-15.3v-46.4c0-11.9-6.8-17-15.3-17s-15.8 5.3-15.8 17v46.4h-15.3V321h15v7.7c5.1-5.6 12.6-8.6 20.3-8.6 9.5 0 16.8 3.8 21.6 11.1 6.2-7.5 13.8-11.1 23.9-11.1 7.8 0 14.7 2.6 19.2 6.9 5.9 5.7 8.1 12.9 8.1 21.5v48.7h-15.3zm45.9-33.6c0 13.1 6.9 21.3 19.4 21.3 8.6 0 13.1-2.4 18.5-7.8l9.8 9.2C794 394 786.6 398 773.2 398c-19 0-34.2-10-34.2-39 0-24.6 12.8-38.9 32.3-38.9 20.4 0 32.3 15 32.3 36.7v6.8h-49.4zm32.1-21c-2.4-5.7-7.8-9.6-15-9.6s-12.8 3.9-15.2 9.6c-1.5 3.5-1.8 5.7-2 10.4h34.2c0-4.7-.5-7-2-10.4zm77.6 54.6V389c-5.7 6.9-11.9 9-20.1 9-7.7 0-14.4-2.6-18.6-6.8-7.7-7.7-8.6-20.7-8.6-32.3 0-11.6.9-24.5 8.6-32.1 4.2-4.2 10.8-6.8 18.5-6.8 8.1 0 14.4 2 20 8.6v-38.5H879V397h-15.1zm-16.1-63.3c-13.8 0-15.9 11.7-15.9 25.2s2.1 25.4 15.9 25.4 15.8-11.9 15.8-25.4-2-25.2-15.8-25.2zm50.1-27.8v-16.2h16.2V306h-16.2zm.5 91.1V321h15.3v76.2h-15.3zm75.9 0v-6.9c-5.6 5.6-10.8 7.8-20.3 7.8s-15.8-2.3-20.4-6.9c-3.9-4.1-6-9.9-6-16.4 0-12.8 8.9-21.9 26.3-21.9H974v-5.4c0-9.6-4.8-14.3-16.7-14.3-8.4 0-12.5 2-16.7 7.4l-10.1-9.5c7.2-8.4 14.7-11 27.3-11 20.9 0 31.4 8.9 31.4 26.1V397h-14.9zm-.3-33.6h-17.9c-9 0-13.7 4.1-13.7 11s4.4 10.8 14 10.8c5.9 0 10.2-.5 14.3-4.4 2.3-2.3 3.3-5.9 3.3-11.3v-6.1z" class="st5"/></svg>