<svg xmlns="http://www.w3.org/2000/svg" viewBox="0 0 595 55">
    <path d="M18.204 42.064L0 25.35 18.033 9.766l4.631 4.347L9.491 25.275v.16l13.287 12.273zm552.578-4.356l13.287-12.272v-.162l-13.287-11.161 4.631-4.347 18.033 15.584L575.3 42.055zM67.886 41.409h-6.644L55.7 22.057h-.465L49.692 41.41h-6.644l-8.172-31.054h7.66l4.223 20.253h.389l5.353-20.253h5.932l5.343 20.111h.38l4.29-20.111h7.668zM78.23 26.28c0-9.49 5.42-16.334 14.711-16.334 7.887 0 13.895 4.955 13.895 14.92v3.294H85.805c.512 4.612 2.933 7.403 7.403 7.403 3.74 0 5.438-2.003 6.264-4.31l7.042 1.899c-1.139 4.27-5.182 8.836-13.287 8.836-9.273 0-14.996-5.998-14.996-15.708zm7.802-3.502h13.363c.214-3.672-2.84-6.7-6.51-6.454-3.598-.01-6.028 2.354-6.853 6.454zM119.498 0v14.236h.36c1.054-2.116 3.455-4.242 7.593-4.242 6.73 0 12.339 5.457 12.339 15.954s-5.42 16.05-12.339 16.05c-4.119 0-6.567-2.079-7.593-4.224h-.465v3.683h-7.744V0zm5.903 16.315c-4.745 0-6.643 4.081-6.643 9.567s1.822 9.68 6.643 9.68c4.603 0 6.976-3.881 6.976-9.68 0-5.8-2.354-9.567-6.976-9.567zm44.029 25.094h-7.66V21.715c0-3.796-1.964-5.296-4.669-5.296-2.705 0-4.869 1.899-4.869 5.761v19.23h-7.849V10.354h7.66v3.938h.256a9.406 9.406 0 0 1 8.086-4.347 8.03 8.03 0 0 1 7.792 4.689h.323a10.089 10.089 0 0 1 8.817-4.689c5.22 0 9.424 3.237 9.424 11.77v19.693h-7.849V21.65c0-3.958-2.258-5.23-4.565-5.23-3.056 0-4.878 1.955-4.878 5.695zm21.83-15.47c0-9.491 5.551-15.993 14.454-15.993s14.455 6.492 14.455 15.993c0 9.5-5.543 16.05-14.455 16.05-8.912 0-14.474-6.607-14.474-16.05zm21.382 0c0-5.524-2.021-9.624-6.928-9.624s-6.938 4.1-6.938 9.624c0 5.524 2.04 9.624 6.938 9.624 4.897 0 6.91-4.129 6.91-9.624zm19.931 15.47h-7.849V10.355h7.365v3.938h.323a10.032 10.032 0 0 1 8.608-4.347c5.439 0 10.317 3.313 10.317 11.95v19.513h-7.868V22.22c0-3.702-2.22-5.8-5.191-5.8-3.503 0-5.695 3.066-5.695 7.906zm38.99-25.274h-5.42v15.764c0 2.847 1.424 3.322 3.142 3.322a8.25 8.25 0 0 0 2.002-.247l1.225 6.046c-1.745.574-3.575.84-5.41.788-4.746 0-8.798-3.256-8.798-8.713v-16.96h-3.863v-5.78h3.9V3.71h7.84v6.644h5.42zm22.218 21.734h-.323c-1.072 1.984-3.578 4.129-7.944 4.129-5.524 0-10.108-3.38-10.108-9.387 0-6.008 4.632-9.016 12.49-9.747 2.715-.266 5.562-.36 5.562-1.984v-.465c0-2.771-1.756-4.328-4.49-4.328a5.514 5.514 0 0 0-5.58 3.797l-7.374-1.073c1.433-5.695 6.548-8.817 13.164-8.817 6.16 0 12.186 2.733 12.186 10.61v20.881h-7.593zm-.323-10.924c-.588.655-3.417 1.053-4.83 1.234-3.721.427-5.6 1.68-5.6 4.366 0 2.23 1.755 3.54 4.346 3.54 3.455 0 6.084-2.326 6.084-5.03zm40.603-16.505v30.115c0 8.39-6.17 12.651-14.579 12.651-5.903 0-10.373-2.4-12.129-4.622l3.844-5.134a11.816 11.816 0 0 0 8.086 3.274c4.167 0 7.137-1.898 7.1-6.644v-3.132h-.447c-.892 1.633-3.217 3.882-7.687 3.882-6.644 0-12.339-4.85-12.339-15.185 0-10.336 5.581-15.699 12.358-15.699 4.147 0 6.577 2.126 7.592 4.243h.427V10.44zm-13.753 24.107c4.594 0 6.644-3.512 6.644-8.912 0-5.239-1.984-9.32-6.644-9.32s-6.919 3.844-6.919 9.31c0 5.771 2.534 8.922 6.92 8.922zm39.435-7.735H339.87V20.88h19.874zM373.391 0v14.236h.361c1.053-2.116 3.455-4.242 7.593-4.242 6.729 0 12.338 5.457 12.338 15.954s-5.41 16.05-12.338 16.05c-4.129 0-6.568-2.079-7.593-4.224h-.465v3.683h-7.697V0zm5.904 16.315c-4.746 0-6.644 4.081-6.644 9.567s1.822 9.68 6.644 9.68c4.603 0 6.966-3.881 6.966-9.68 0-5.8-2.344-9.567-6.966-9.567zm36.065 1.433a6.834 6.834 0 0 0-2.894-.645c-3.72 0-6.283 3.255-6.321 6.69V41.41h-7.85V10.355h7.688v4.403h.418c.892-3.15 4.072-4.83 7.1-4.83 1.489-.01 2.96.334 4.29 1.006zm3.132 8.542c0-9.491 5.42-16.334 14.721-16.334 7.887 0 13.885 4.954 13.885 14.92v3.293h-21.041c.503 4.613 2.932 7.403 7.403 7.403 3.74 0 5.438-2.002 6.264-4.309l7.033 1.898c-1.13 4.271-5.173 8.837-13.24 8.837-9.32-.01-15.044-6.008-15.044-15.718zm7.802-3.512h13.325a6.122 6.122 0 0 0-6.51-6.454c-3.579-.01-5.999 2.354-6.834 6.454zm50.672 18.64h-7.659V21.716c0-3.796-1.964-5.296-4.67-5.296-2.704 0-4.878 1.899-4.878 5.761v19.23h-7.84V10.354h7.631v3.938h.266a9.387 9.387 0 0 1 8.086-4.347 8.048 8.048 0 0 1 7.783 4.689h.323a10.07 10.07 0 0 1 8.807-4.689c5.22 0 9.425 3.237 9.425 11.77v19.693h-7.84V21.65c0-3.958-2.268-5.23-4.574-5.23-3.047 0-4.87 1.955-4.87 5.695zm21.83-15.128c0-9.491 5.42-16.334 14.72-16.334 7.887 0 13.885 4.954 13.885 14.92v3.293h-21.07c.504 4.613 2.933 7.403 7.394 7.403 3.749 0 5.448-2.002 6.274-4.309l7.032 1.898c-1.13 4.271-5.172 8.837-13.287 8.837-9.273-.01-14.996-6.008-14.996-15.718zm7.801-3.512h13.316c.214-3.672-2.84-6.7-6.51-6.454-3.55-.01-6.018 2.354-6.853 6.454zm33.466 18.64h-7.84V10.356h7.355v3.938h.323a10.032 10.032 0 0 1 8.608-4.347c5.439 0 10.317 3.313 10.317 11.95v19.513h-7.868V22.22c0-3.702-2.22-5.8-5.191-5.8-3.503 0-5.695 3.066-5.695 7.906z"/>
</svg>
