<svg xmlns="http://www.w3.org/2000/svg" viewBox="0 0 218 56.06">
    <path d="M63.34 43.62h-7l-5.85-20.38H50l-5.83 20.38h-7l-8.62-32.71h8.08l4.45 21.34h.4l5.65-21.34h6.24L59 32.1h.41l4.51-21.19H72zm39.75 0H95V22.88c0-4-2.07-5.58-4.92-5.58S85 19.26 85 23.37v20.25h-8.3V10.91h8.1v4.15h.27a9.91 9.91 0 0 1 8.52-4.58 8.46 8.46 0 0 1 8.16 4.94h.34a10.63 10.63 0 0 1 9.29-4.94c5.5 0 9.93 3.41 9.93 12.4v20.74H113V22.81c0-4.17-2.38-5.51-4.81-5.51-3.22 0-5.14 2.06-5.14 6zm32.71 0h-8.27V0h8v14.76h.34a10.67 10.67 0 0 1 8.86-4.28c6 0 10.16 4.09 10.16 12.59v20.55h-8.29V23c0-3.5-1.53-5.71-4.77-5.71-3.77 0-6.07 3.15-6.07 8.18zM169.42 0v15h.38c1.11-2.23 3.64-4.47 8-4.47 7.09 0 13 5.75 13 16.81s-5.71 16.91-13 16.91c-4.34 0-6.92-2.19-8-4.45h-.49v3.87h-8.16V0zm6.22 17.19c-5 0-7 4.3-7 10.08s1.92 10.2 7 10.2c4.85 0 7.35-4.09 7.35-10.2s-2.48-10.08-7.35-10.08zM194 39.65l14-12.93v-.17l-13.94-11.76 4.88-4.58 19 16.42-19.13 17.6zM19.15 44.23L0 26.63l19-16.42 4.88 4.58L10 26.55v.17l14 12.93z"/>
</svg>
