<?xml version="1.0" standalone="no"?>
<!DOCTYPE svg PUBLIC "-//W3C//DTD SVG 20010904//EN"
 "http://www.w3.org/TR/2001/REC-SVG-20010904/DTD/svg10.dtd">
<svg version="1.0" xmlns="http://www.w3.org/2000/svg"
 width="804.000000pt" height="804.000000pt" viewBox="0 0 804.000000 804.000000"
 preserveAspectRatio="xMidYMid meet">
<metadata>
Created by potrace 1.11, written by Peter Selinger 2001-2013
</metadata>
<g transform="translate(0.000000,804.000000) scale(0.100000,-0.100000)"
fill="#000000" stroke="none">
<path d="M0 5969 c0 -1653 3 -2069 13 -2063 6 5 82 69 167 144 389 339 513
445 520 445 4 0 46 -37 94 -82 l86 -82 -255 -217 c-140 -120 -255 -220 -254
-223 0 -3 115 -112 255 -241 140 -128 254 -237 254 -241 0 -3 -39 -42 -88 -86
l-87 -80 -275 254 c-151 140 -310 286 -352 325 l-78 70 0 -1946 0 -1946 4020
0 4020 0 0 4020 0 4020 -4020 0 -4020 0 0 -2071z m4990 -1358 c0 -263 5 -307
30 -261 21 39 126 107 194 125 180 49 360 -20 433 -167 55 -109 58 -139 58
-608 l0 -435 -152 -3 -153 -3 -1 418 c-1 427 -2 449 -40 501 -24 33 -87 62
-134 62 -82 -1 -155 -54 -197 -145 -23 -49 -23 -57 -26 -442 l-3 -393 -150 0
-149 0 0 810 0 810 145 0 145 0 0 -269z m1250 -6 c0 -151 3 -275 6 -275 3 0
28 24 55 54 56 62 120 93 208 102 175 19 352 -80 439 -243 114 -216 105 -582
-20 -790 -84 -141 -246 -224 -409 -210 -109 9 -184 49 -243 130 l-31 42 -5
-75 -5 -75 -147 -3 -148 -3 0 811 0 810 150 0 150 0 0 -275z m1421 -392 c182
-159 340 -295 351 -303 18 -15 5 -29 -288 -300 -169 -157 -328 -304 -353 -326
l-46 -41 -90 84 -90 84 45 41 c179 164 464 431 468 439 1 3 -68 66 -155 140
-87 73 -202 171 -256 217 l-98 84 88 84 c48 46 89 83 91 84 2 0 152 -129 333
-287z m-4085 256 c56 -21 131 -84 166 -139 l15 -25 29 35 c52 61 78 82 144
114 60 29 73 31 170 31 89 0 113 -4 157 -24 70 -31 144 -111 171 -183 39 -103
43 -165 40 -598 l-3 -415 -150 0 -150 0 -5 430 c-5 420 -6 431 -27 465 -78
125 -283 94 -323 -48 -6 -23 -10 -195 -10 -445 l0 -408 -147 3 -148 3 -5 425
c-6 468 -4 458 -70 513 -56 48 -161 46 -224 -4 -15 -11 -37 -40 -49 -62 -22
-41 -22 -50 -25 -459 l-3 -418 -150 0 -149 0 0 610 0 611 147 -3 148 -3 -1
-72 c-1 -40 1 -73 4 -73 3 0 31 25 63 55 82 78 142 102 261 104 46 1 85 -6
124 -20z m-2226 -12 c9 -22 23 -84 115 -537 26 -124 49 -227 51 -229 2 -2 7
-1 10 2 4 3 53 181 109 394 l102 388 114 0 114 0 27 -95 c14 -52 62 -229 104
-392 43 -164 81 -298 85 -298 4 0 13 24 19 53 6 28 43 205 83 392 l73 340 147
3 c81 1 147 -1 147 -5 0 -10 -91 -357 -263 -1008 l-53 -200 -129 0 -129 0 -43
150 c-24 83 -72 251 -107 375 -35 123 -68 226 -73 227 -5 2 -56 -160 -113
-359 -56 -200 -107 -371 -112 -380 -8 -16 -25 -18 -133 -18 l-124 0 -11 43
c-6 23 -20 76 -31 117 -57 211 -271 1032 -271 1040 0 3 0 8 1 12 0 4 64 7 141
7 136 0 141 -1 150 -22z"/>
<path d="M6384 4229 c-43 -12 -103 -74 -131 -134 -47 -105 -52 -289 -11 -424
40 -131 154 -201 283 -172 140 31 215 161 215 372 0 180 -62 308 -172 353 -40
17 -134 20 -184 5z"/>
</g>
</svg>
